<?xml version="1.0" encoding="UTF-8"?>
<svg xmlns:xlink="http://www.w3.org/1999/xlink" xmlns="http://www.w3.org/2000/svg" width="375pt" height="374.999991pt"
     viewBox="0 0 375 374.999991" version="1.2">
    <defs>
        <filter id="alpha" filterUnits="objectBoundingBox" x="0%" y="0%" width="100%" height="100%">
            <feColorMatrix type="matrix" in="SourceGraphic" values="0 0 0 0 1 0 0 0 0 1 0 0 0 0 1 0 0 0 1 0"/>
        </filter>
        <mask id="mask0">
            <g filter="url(#alpha)">
                <rect x="0" y="0" width="375" height="374.999991"
                      style="fill:rgb(0%,0%,0%);fill-opacity:0.2;stroke:none;"/>
            </g>
        </mask>
        <clipPath id="clip2">
            <path d="M 0.761719 0 L 281 0 L 281 199 L 0.761719 199 Z M 0.761719 0 "/>
        </clipPath>
        <clipPath id="clip1">
            <rect x="0" y="0" width="282" height="200"/>
        </clipPath>
        <g id="surface5" clip-path="url(#clip1)">
            <g clip-path="url(#clip2)" clip-rule="nonzero">
                <path style=" stroke:none;fill-rule:nonzero;fill:rgb(20.388794%,10.5896%,2.749634%);fill-opacity:1;"
                      d="M 0.976562 0.109375 L 280.082031 0.109375 L 280.082031 198.324219 L 0.976562 198.324219 Z M 0.976562 0.109375 "/>
            </g>
        </g>
        <mask id="mask1">
            <g filter="url(#alpha)">
                <rect x="0" y="0" width="375" height="374.999991"
                      style="fill:rgb(0%,0%,0%);fill-opacity:0.2;stroke:none;"/>
            </g>
        </mask>
        <clipPath id="clip4">
            <path d="M 0.761719 0 L 281 0 L 281 21 L 0.761719 21 Z M 0.761719 0 "/>
        </clipPath>
        <clipPath id="clip3">
            <rect x="0" y="0" width="282" height="22"/>
        </clipPath>
        <g id="surface8" clip-path="url(#clip3)">
            <g clip-path="url(#clip4)" clip-rule="nonzero">
                <path style=" stroke:none;fill-rule:nonzero;fill:rgb(20.388794%,10.5896%,2.749634%);fill-opacity:1;"
                      d="M 0.976562 0.109375 L 280.082031 0.109375 L 280.082031 20.917969 L 0.976562 20.917969 Z M 0.976562 0.109375 "/>
            </g>
        </g>
        <mask id="mask2">
            <g filter="url(#alpha)">
                <rect x="0" y="0" width="375" height="374.999991"
                      style="fill:rgb(0%,0%,0%);fill-opacity:0.2;stroke:none;"/>
            </g>
        </mask>
        <clipPath id="clip6">
            <path d="M 1 0.121094 L 322 0.121094 L 322 113 L 1 113 Z M 1 0.121094 "/>
        </clipPath>
        <clipPath id="clip5">
            <rect x="0" y="0" width="323" height="115"/>
        </clipPath>
        <g id="surface11" clip-path="url(#clip5)">
            <g clip-path="url(#clip6)" clip-rule="nonzero">
                <path style=" stroke:none;fill-rule:nonzero;fill:rgb(80.389404%,79.219055%,70.588684%);fill-opacity:1;"
                      d="M 283.414062 0.644531 L 39.496094 0.644531 C 18.53125 0.644531 1.3125 17.863281 1.3125 38.820312 L 1.3125 112.925781 L 6.554688 112.925781 L 6.554688 38.820312 C 6.554688 20.558594 21.375 5.734375 39.644531 5.734375 L 283.5625 5.734375 C 301.832031 5.734375 316.652344 20.558594 316.652344 38.820312 L 316.652344 112.925781 L 321.894531 112.925781 L 321.894531 38.820312 C 321.746094 17.863281 304.527344 0.644531 283.414062 0.644531 Z M 283.414062 0.644531 "/>
            </g>
        </g>
        <mask id="mask3">
            <g filter="url(#alpha)">
                <rect x="0" y="0" width="375" height="374.999991"
                      style="fill:rgb(0%,0%,0%);fill-opacity:0.1176;stroke:none;"/>
            </g>
        </mask>
        <clipPath id="clip7">
            <rect x="0" y="0" width="63" height="61"/>
        </clipPath>
        <g id="surface14" clip-path="url(#clip7)">
            <path style=" stroke:none;fill-rule:nonzero;fill:rgb(20.388794%,10.5896%,2.749634%);fill-opacity:1;"
                  d="M 61.839844 30.265625 C 61.839844 31.21875 61.792969 32.167969 61.695312 33.113281 C 61.597656 34.058594 61.453125 35 61.261719 35.933594 C 61.066406 36.863281 60.828125 37.785156 60.539062 38.695312 C 60.25 39.605469 59.917969 40.5 59.539062 41.378906 C 59.160156 42.257812 58.738281 43.117188 58.269531 43.957031 C 57.800781 44.796875 57.292969 45.609375 56.742188 46.402344 C 56.191406 47.191406 55.605469 47.957031 54.976562 48.691406 C 54.347656 49.425781 53.683594 50.128906 52.980469 50.804688 C 52.28125 51.476562 51.546875 52.113281 50.78125 52.71875 C 50.015625 53.320312 49.222656 53.886719 48.398438 54.414062 C 47.574219 54.945312 46.726562 55.433594 45.851562 55.878906 C 44.980469 56.328125 44.085938 56.734375 43.167969 57.097656 C 42.253906 57.460938 41.324219 57.78125 40.375 58.058594 C 39.425781 58.335938 38.46875 58.566406 37.496094 58.75 C 36.523438 58.9375 35.546875 59.078125 34.558594 59.167969 C 33.574219 59.261719 32.585938 59.308594 31.59375 59.308594 C 30.605469 59.308594 29.617188 59.261719 28.628906 59.167969 C 27.644531 59.078125 26.664062 58.9375 25.695312 58.75 C 24.722656 58.566406 23.761719 58.335938 22.816406 58.058594 C 21.867188 57.78125 20.933594 57.460938 20.019531 57.097656 C 19.105469 56.734375 18.210938 56.328125 17.335938 55.878906 C 16.460938 55.433594 15.613281 54.945312 14.789062 54.414062 C 13.96875 53.886719 13.171875 53.320312 12.40625 52.71875 C 11.640625 52.113281 10.90625 51.476562 10.207031 50.804688 C 9.507812 50.128906 8.84375 49.425781 8.214844 48.691406 C 7.585938 47.957031 6.996094 47.191406 6.445312 46.402344 C 5.894531 45.609375 5.386719 44.796875 4.917969 43.957031 C 4.453125 43.117188 4.03125 42.257812 3.652344 41.378906 C 3.269531 40.5 2.9375 39.605469 2.652344 38.695312 C 2.363281 37.785156 2.121094 36.863281 1.929688 35.933594 C 1.734375 35 1.589844 34.058594 1.492188 33.113281 C 1.398438 32.167969 1.347656 31.21875 1.347656 30.265625 C 1.347656 29.316406 1.398438 28.367188 1.492188 27.417969 C 1.589844 26.472656 1.734375 25.53125 1.929688 24.601562 C 2.121094 23.667969 2.363281 22.746094 2.652344 21.835938 C 2.9375 20.925781 3.269531 20.03125 3.652344 19.152344 C 4.03125 18.273438 4.453125 17.414062 4.917969 16.574219 C 5.386719 15.734375 5.894531 14.921875 6.445312 14.128906 C 6.996094 13.339844 7.585938 12.578125 8.214844 11.839844 C 8.84375 11.105469 9.507812 10.402344 10.207031 9.730469 C 10.90625 9.054688 11.640625 8.417969 12.40625 7.816406 C 13.171875 7.210938 13.96875 6.644531 14.789062 6.117188 C 15.613281 5.589844 16.460938 5.101562 17.335938 4.652344 C 18.210938 4.203125 19.105469 3.796875 20.019531 3.433594 C 20.933594 3.070312 21.867188 2.75 22.816406 2.472656 C 23.761719 2.195312 24.722656 1.964844 25.695312 1.78125 C 26.664062 1.59375 27.644531 1.457031 28.628906 1.363281 C 29.617188 1.269531 30.605469 1.222656 31.59375 1.222656 C 32.585938 1.222656 33.574219 1.269531 34.558594 1.363281 C 35.546875 1.457031 36.523438 1.59375 37.496094 1.78125 C 38.46875 1.964844 39.425781 2.195312 40.375 2.472656 C 41.324219 2.75 42.253906 3.070312 43.167969 3.433594 C 44.085938 3.796875 44.980469 4.203125 45.851562 4.652344 C 46.726562 5.101562 47.574219 5.589844 48.398438 6.117188 C 49.222656 6.644531 50.015625 7.210938 50.78125 7.816406 C 51.546875 8.417969 52.28125 9.054688 52.980469 9.730469 C 53.683594 10.402344 54.347656 11.105469 54.976562 11.839844 C 55.605469 12.578125 56.191406 13.339844 56.742188 14.128906 C 57.292969 14.921875 57.800781 15.734375 58.269531 16.574219 C 58.738281 17.414062 59.160156 18.273438 59.539062 19.152344 C 59.917969 20.03125 60.25 20.925781 60.539062 21.835938 C 60.828125 22.746094 61.066406 23.667969 61.261719 24.601562 C 61.453125 25.53125 61.597656 26.472656 61.695312 27.417969 C 61.792969 28.367188 61.839844 29.316406 61.839844 30.265625 Z M 61.839844 30.265625 "/>
        </g>
        <mask id="mask4">
            <g filter="url(#alpha)">
                <rect x="0" y="0" width="375" height="374.999991"
                      style="fill:rgb(0%,0%,0%);fill-opacity:0.1176;stroke:none;"/>
            </g>
        </mask>
        <clipPath id="clip9">
            <path d="M 1 1 L 52 1 L 52 51.679688 L 1 51.679688 Z M 1 1 "/>
        </clipPath>
        <clipPath id="clip8">
            <rect x="0" y="0" width="53" height="52"/>
        </clipPath>
        <g id="surface17" clip-path="url(#clip8)">
            <g clip-path="url(#clip9)" clip-rule="nonzero">
                <path style=" stroke:none;fill-rule:nonzero;fill:rgb(20.388794%,10.5896%,2.749634%);fill-opacity:1;"
                      d="M 26.289062 1.0625 C 12.363281 1.0625 1.132812 12.289062 1.132812 26.210938 C 1.132812 40.136719 12.363281 51.363281 26.289062 51.363281 C 40.214844 51.363281 51.445312 40.136719 51.445312 26.210938 C 51.445312 12.289062 40.214844 1.0625 26.289062 1.0625 Z M 29.136719 47.769531 C 18.355469 47.769531 9.667969 39.085938 9.667969 28.308594 C 9.667969 17.527344 18.355469 8.847656 29.136719 8.847656 C 39.914062 8.847656 48.601562 17.527344 48.601562 28.308594 C 48.601562 38.9375 39.914062 47.769531 29.136719 47.769531 Z M 29.136719 47.769531 "/>
            </g>
        </g>
        <mask id="mask5">
            <g filter="url(#alpha)">
                <rect x="0" y="0" width="375" height="374.999991"
                      style="fill:rgb(0%,0%,0%);fill-opacity:0.1176;stroke:none;"/>
            </g>
        </mask>
        <clipPath id="clip10">
            <rect x="0" y="0" width="22" height="11"/>
        </clipPath>
        <g id="surface20" clip-path="url(#clip10)">
            <path style=" stroke:none;fill-rule:nonzero;fill:rgb(20.388794%,10.5896%,2.749634%);fill-opacity:1;"
                  d="M 20.308594 0.234375 C 20.308594 5.476562 15.964844 9.816406 10.726562 9.816406 C 5.484375 9.816406 1.140625 5.476562 1.140625 0.234375 "/>
        </g>
        <mask id="mask6">
            <g filter="url(#alpha)">
                <rect x="0" y="0" width="375" height="374.999991"
                      style="fill:rgb(0%,0%,0%);fill-opacity:0.1176;stroke:none;"/>
            </g>
        </mask>
        <clipPath id="clip12">
            <path d="M 0.761719 0 L 20.441406 0 L 20.441406 10 L 0.761719 10 Z M 0.761719 0 "/>
        </clipPath>
        <clipPath id="clip11">
            <rect x="0" y="0" width="21" height="11"/>
        </clipPath>
        <g id="surface23" clip-path="url(#clip11)">
            <g clip-path="url(#clip12)" clip-rule="nonzero">
                <path style=" stroke:none;fill-rule:nonzero;fill:rgb(20.388794%,10.5896%,2.749634%);fill-opacity:1;"
                      d="M 20.121094 0.234375 C 20.121094 5.476562 15.777344 9.816406 10.539062 9.816406 C 5.296875 9.816406 0.953125 5.476562 0.953125 0.234375 "/>
            </g>
        </g>
        <mask id="mask7">
            <g filter="url(#alpha)">
                <rect x="0" y="0" width="375" height="374.999991"
                      style="fill:rgb(0%,0%,0%);fill-opacity:0.1176;stroke:none;"/>
            </g>
        </mask>
        <clipPath id="clip14">
            <path d="M 1 0.441406 L 328 0.441406 L 328 11.238281 L 1 11.238281 Z M 1 0.441406 "/>
        </clipPath>
        <clipPath id="clip13">
            <rect x="0" y="0" width="329" height="12"/>
        </clipPath>
        <g id="surface26" clip-path="url(#clip13)">
            <g clip-path="url(#clip14)" clip-rule="nonzero">
                <path style=" stroke:none;fill-rule:nonzero;fill:rgb(20.388794%,10.5896%,2.749634%);fill-opacity:1;"
                      d="M 1.5625 0.925781 L 327.085938 0.925781 L 327.085938 11.109375 L 1.5625 11.109375 Z M 1.5625 0.925781 "/>
            </g>
        </g>
        <clipPath id="clip15">
            <path d="M 18.027344 0 L 357.027344 0 L 357.027344 138 L 18.027344 138 Z M 18.027344 0 "/>
        </clipPath>
        <mask id="mask8">
            <g filter="url(#alpha)">
                <rect x="0" y="0" width="375" height="374.999991"
                      style="fill:rgb(0%,0%,0%);fill-opacity:0.2;stroke:none;"/>
            </g>
        </mask>
        <clipPath id="clip17">
            <path d="M 0.761719 1 L 281 1 L 281 17 L 0.761719 17 Z M 0.761719 1 "/>
        </clipPath>
        <clipPath id="clip16">
            <rect x="0" y="0" width="282" height="18"/>
        </clipPath>
        <g id="surface29" clip-path="url(#clip16)">
            <g clip-path="url(#clip17)" clip-rule="nonzero">
                <path style=" stroke:none;fill-rule:nonzero;fill:rgb(20.388794%,10.5896%,2.749634%);fill-opacity:1;"
                      d="M 0.976562 1.949219 L 280.082031 1.949219 L 280.082031 16.324219 L 0.976562 16.324219 Z M 0.976562 1.949219 "/>
            </g>
        </g>
        <mask id="mask9">
            <g filter="url(#alpha)">
                <rect x="0" y="0" width="375" height="374.999991"
                      style="fill:rgb(0%,0%,0%);fill-opacity:0.2;stroke:none;"/>
            </g>
        </mask>
        <clipPath id="clip19">
            <path d="M 1 1 L 88 1 L 88 8.800781 L 1 8.800781 Z M 1 1 "/>
        </clipPath>
        <clipPath id="clip18">
            <rect x="0" y="0" width="90" height="9"/>
        </clipPath>
        <g id="surface32" clip-path="url(#clip18)">
            <g clip-path="url(#clip19)" clip-rule="nonzero">
                <path style=" stroke:none;fill-rule:nonzero;fill:rgb(20.388794%,10.5896%,2.749634%);fill-opacity:1;"
                      d="M 1.703125 1.851562 L 87.953125 1.851562 L 87.953125 8.585938 L 1.703125 8.585938 Z M 1.703125 1.851562 "/>
            </g>
        </g>
        <mask id="mask10">
            <g filter="url(#alpha)">
                <rect x="0" y="0" width="375" height="374.999991"
                      style="fill:rgb(0%,0%,0%);fill-opacity:0.0275;stroke:none;"/>
            </g>
        </mask>
        <clipPath id="clip21">
            <path d="M 0.640625 0.558594 L 7 0.558594 L 7 30 L 0.640625 30 Z M 0.640625 0.558594 "/>
        </clipPath>
        <clipPath id="clip20">
            <rect x="0" y="0" width="9" height="31"/>
        </clipPath>
        <g id="surface35" clip-path="url(#clip20)">
            <g clip-path="url(#clip21)" clip-rule="nonzero">
                <path style=" stroke:none;fill-rule:nonzero;fill:rgb(80.389404%,79.219055%,70.588684%);fill-opacity:1;"
                      d="M 0.960938 0.585938 L 6.800781 0.585938 L 6.800781 29.929688 L 0.960938 29.929688 Z M 0.960938 0.585938 "/>
            </g>
        </g>
        <mask id="mask11">
            <g filter="url(#alpha)">
                <rect x="0" y="0" width="375" height="374.999991"
                      style="fill:rgb(0%,0%,0%);fill-opacity:0.0275;stroke:none;"/>
            </g>
        </mask>
        <clipPath id="clip23">
            <path d="M 2 1 L 8.878906 1 L 8.878906 32 L 2 32 Z M 2 1 "/>
        </clipPath>
        <clipPath id="clip22">
            <rect x="0" y="0" width="9" height="32"/>
        </clipPath>
        <g id="surface38" clip-path="url(#clip22)">
            <g clip-path="url(#clip23)" clip-rule="nonzero">
                <path style=" stroke:none;fill-rule:nonzero;fill:rgb(80.389404%,79.219055%,70.588684%);fill-opacity:1;"
                      d="M 2.535156 1.875 L 8.375 1.875 L 8.375 31.21875 L 2.535156 31.21875 Z M 2.535156 1.875 "/>
            </g>
        </g>
        <mask id="mask12">
            <g filter="url(#alpha)">
                <rect x="0" y="0" width="375" height="374.999991"
                      style="fill:rgb(0%,0%,0%);fill-opacity:0.2;stroke:none;"/>
            </g>
        </mask>
        <clipPath id="clip25">
            <path d="M 1 2 L 57.878906 2 L 57.878906 13 L 1 13 Z M 1 2 "/>
        </clipPath>
        <clipPath id="clip24">
            <rect x="0" y="0" width="58" height="13"/>
        </clipPath>
        <g id="surface41" clip-path="url(#clip24)">
            <g clip-path="url(#clip25)" clip-rule="nonzero">
                <path style=" stroke:none;fill-rule:nonzero;fill:rgb(20.388794%,10.5896%,2.749634%);fill-opacity:1;"
                      d="M 1.683594 2.339844 L 57.535156 2.339844 L 57.535156 12.21875 L 1.683594 12.21875 Z M 1.683594 2.339844 "/>
            </g>
        </g>
        <mask id="mask13">
            <g filter="url(#alpha)">
                <rect x="0" y="0" width="375" height="374.999991"
                      style="fill:rgb(0%,0%,0%);fill-opacity:0.2;stroke:none;"/>
            </g>
        </mask>
        <clipPath id="clip26">
            <rect x="0" y="0" width="329" height="15"/>
        </clipPath>
        <g id="surface44" clip-path="url(#clip26)">
            <path style=" stroke:none;fill-rule:nonzero;fill:rgb(20.388794%,10.5896%,2.749634%);fill-opacity:1;"
                  d="M 1.5625 1.71875 L 327.085938 1.71875 L 327.085938 13.695312 L 1.5625 13.695312 Z M 1.5625 1.71875 "/>
        </g>
        <mask id="mask14">
            <g filter="url(#alpha)">
                <rect x="0" y="0" width="375" height="374.999991"
                      style="fill:rgb(0%,0%,0%);fill-opacity:0.2;stroke:none;"/>
            </g>
        </mask>
        <clipPath id="clip28">
            <path d="M 1 1 L 328 1 L 328 12.761719 L 1 12.761719 Z M 1 1 "/>
        </clipPath>
        <clipPath id="clip27">
            <rect x="0" y="0" width="329" height="13"/>
        </clipPath>
        <g id="surface47" clip-path="url(#clip27)">
            <g clip-path="url(#clip28)" clip-rule="nonzero">
                <path style=" stroke:none;fill-rule:nonzero;fill:rgb(80.389404%,79.219055%,70.588684%);fill-opacity:1;"
                      d="M 1.5625 1.324219 L 327.085938 1.324219 L 327.085938 12.25 L 1.5625 12.25 Z M 1.5625 1.324219 "/>
            </g>
        </g>
        <mask id="mask15">
            <g filter="url(#alpha)">
                <rect x="0" y="0" width="375" height="374.999991"
                      style="fill:rgb(0%,0%,0%);fill-opacity:0.0196;stroke:none;"/>
            </g>
        </mask>
        <clipPath id="clip30">
            <path d="M 0.640625 0.199219 L 55 0.199219 L 55 24 L 0.640625 24 Z M 0.640625 0.199219 "/>
        </clipPath>
        <clipPath id="clip29">
            <rect x="0" y="0" width="57" height="25"/>
        </clipPath>
        <g id="surface50" clip-path="url(#clip29)">
            <g clip-path="url(#clip30)" clip-rule="nonzero">
                <path style=" stroke:none;fill-rule:nonzero;fill:rgb(80.389404%,79.219055%,70.588684%);fill-opacity:1;"
                      d="M 54.867188 23.324219 L 0.960938 23.324219 L 0.960938 0.867188 L 41.390625 0.867188 C 48.878906 0.867188 54.867188 6.855469 54.867188 14.339844 Z M 54.867188 23.324219 "/>
            </g>
        </g>
        <clipPath id="clip31">
            <path d="M 18.027344 325 L 357.027344 325 L 357.027344 375 L 18.027344 375 Z M 18.027344 325 "/>
        </clipPath>
        <mask id="mask16">
            <g filter="url(#alpha)">
                <rect x="0" y="0" width="375" height="374.999991"
                      style="fill:rgb(0%,0%,0%);fill-opacity:0.1176;stroke:none;"/>
            </g>
        </mask>
        <clipPath id="clip32">
            <rect x="0" y="0" width="16" height="73"/>
        </clipPath>
        <g id="surface53" clip-path="url(#clip32)">
            <path style=" stroke:none;fill-rule:nonzero;fill:rgb(80.389404%,79.219055%,70.588684%);fill-opacity:1;"
                  d="M 1.304688 1.609375 L 14.929688 1.609375 L 14.929688 71.523438 L 1.304688 71.523438 Z M 1.304688 1.609375 "/>
        </g>
    </defs>
    <g id="surface1">
        <rect x="0" y="0" width="375" height="374.999991" style="fill:rgb(100%,100%,100%);fill-opacity:1;stroke:none;"/>
        <path style=" stroke:none;fill-rule:nonzero;fill:rgb(89.7995%,67.449951%,13.729858%);fill-opacity:1;"
              d="M 317.050781 330.324219 L 58.007812 330.324219 C 52.46875 330.324219 47.976562 325.832031 47.976562 320.292969 L 47.976562 142.136719 C 47.976562 136.597656 52.46875 132.109375 58.007812 132.109375 L 317.050781 132.109375 C 322.589844 132.109375 327.082031 136.597656 327.082031 142.136719 L 327.082031 320.292969 C 327.082031 325.832031 322.589844 330.324219 317.050781 330.324219 Z M 317.050781 330.324219 "/>
        <use xlink:href="#surface5" transform="matrix(1,0,0,1,47,132)" mask="url(#mask0)"/>
        <use xlink:href="#surface8" transform="matrix(1,0,0,1,47,132)" mask="url(#mask1)"/>
        <path style=" stroke:none;fill-rule:nonzero;fill:rgb(20.388794%,10.5896%,2.749634%);fill-opacity:1;"
              d="M 332.171875 335.414062 L 42.886719 335.414062 L 42.886719 127.015625 L 332.171875 127.015625 Z M 52.917969 325.382812 L 321.992188 325.382812 L 321.992188 137.199219 L 52.917969 137.199219 Z M 52.917969 325.382812 "/>
        <path style=" stroke:none;fill-rule:nonzero;fill:rgb(89.7995%,67.449951%,13.729858%);fill-opacity:1;"
              d="M 352.085938 132.109375 L 23.121094 132.109375 L 23.121094 47.972656 C 23.121094 24.464844 42.136719 5.453125 65.644531 5.453125 L 309.5625 5.453125 C 333.070312 5.453125 352.085938 24.464844 352.085938 47.972656 Z M 352.085938 132.109375 "/>
        <use xlink:href="#surface11" transform="matrix(1,0,0,1,26,9)" mask="url(#mask2)"/>
        <use xlink:href="#surface14" transform="matrix(1,0,0,1,260,46)" mask="url(#mask3)"/>
        <path style=" stroke:none;fill-rule:nonzero;fill:rgb(80.389404%,79.219055%,70.588684%);fill-opacity:1;"
              d="M 319.445312 78.210938 C 319.445312 79.035156 319.40625 79.859375 319.324219 80.675781 C 319.242188 81.496094 319.121094 82.3125 318.960938 83.117188 C 318.800781 83.925781 318.601562 84.726562 318.363281 85.511719 C 318.121094 86.300781 317.847656 87.078125 317.53125 87.835938 C 317.214844 88.597656 316.863281 89.34375 316.476562 90.070312 C 316.085938 90.796875 315.664062 91.5 315.207031 92.1875 C 314.75 92.871094 314.257812 93.53125 313.734375 94.167969 C 313.210938 94.804688 312.660156 95.414062 312.078125 95.996094 C 311.496094 96.578125 310.886719 97.132812 310.25 97.65625 C 309.613281 98.175781 308.949219 98.667969 308.265625 99.125 C 307.582031 99.582031 306.875 100.003906 306.148438 100.394531 C 305.421875 100.78125 304.675781 101.132812 303.917969 101.449219 C 303.15625 101.765625 302.378906 102.042969 301.59375 102.28125 C 300.804688 102.519531 300.003906 102.71875 299.199219 102.878906 C 298.390625 103.039062 297.574219 103.160156 296.753906 103.242188 C 295.9375 103.324219 295.113281 103.363281 294.289062 103.363281 C 293.464844 103.363281 292.644531 103.324219 291.824219 103.242188 C 291.003906 103.160156 290.191406 103.039062 289.382812 102.878906 C 288.574219 102.71875 287.777344 102.519531 286.988281 102.28125 C 286.199219 102.042969 285.425781 101.765625 284.664062 101.449219 C 283.902344 101.132812 283.160156 100.78125 282.429688 100.394531 C 281.703125 100.003906 281 99.582031 280.3125 99.125 C 279.628906 98.667969 278.96875 98.175781 278.332031 97.65625 C 277.695312 97.132812 277.085938 96.578125 276.503906 95.996094 C 275.917969 95.414062 275.367188 94.804688 274.84375 94.167969 C 274.320312 93.53125 273.832031 92.871094 273.375 92.1875 C 272.917969 91.5 272.492188 90.796875 272.105469 90.070312 C 271.714844 89.34375 271.363281 88.597656 271.050781 87.835938 C 270.734375 87.078125 270.457031 86.300781 270.21875 85.511719 C 269.976562 84.726562 269.777344 83.925781 269.617188 83.117188 C 269.457031 82.3125 269.335938 81.496094 269.253906 80.675781 C 269.175781 79.859375 269.132812 79.035156 269.132812 78.210938 C 269.132812 77.386719 269.175781 76.566406 269.253906 75.746094 C 269.335938 74.925781 269.457031 74.113281 269.617188 73.304688 C 269.777344 72.496094 269.976562 71.699219 270.21875 70.910156 C 270.457031 70.125 270.734375 69.347656 271.050781 68.585938 C 271.363281 67.828125 271.714844 67.082031 272.105469 66.355469 C 272.492188 65.628906 272.917969 64.925781 273.375 64.238281 C 273.832031 63.554688 274.320312 62.894531 274.84375 62.257812 C 275.367188 61.621094 275.917969 61.011719 276.503906 60.429688 C 277.085938 59.84375 277.695312 59.292969 278.332031 58.769531 C 278.96875 58.246094 279.628906 57.757812 280.3125 57.300781 C 281 56.84375 281.703125 56.417969 282.429688 56.03125 C 283.160156 55.644531 283.902344 55.289062 284.664062 54.976562 C 285.425781 54.660156 286.199219 54.382812 286.988281 54.144531 C 287.777344 53.90625 288.574219 53.707031 289.382812 53.542969 C 290.191406 53.382812 291.003906 53.261719 291.824219 53.183594 C 292.644531 53.101562 293.464844 53.0625 294.289062 53.0625 C 295.113281 53.0625 295.9375 53.101562 296.753906 53.183594 C 297.574219 53.261719 298.390625 53.382812 299.199219 53.542969 C 300.003906 53.707031 300.804688 53.90625 301.59375 54.144531 C 302.378906 54.382812 303.15625 54.660156 303.917969 54.976562 C 304.675781 55.289062 305.421875 55.644531 306.148438 56.03125 C 306.875 56.417969 307.582031 56.84375 308.265625 57.300781 C 308.949219 57.757812 309.613281 58.246094 310.25 58.769531 C 310.886719 59.292969 311.496094 59.84375 312.078125 60.429688 C 312.660156 61.011719 313.210938 61.621094 313.734375 62.257812 C 314.257812 62.894531 314.75 63.554688 315.207031 64.238281 C 315.664062 64.925781 316.085938 65.628906 316.476562 66.355469 C 316.863281 67.082031 317.214844 67.828125 317.53125 68.585938 C 317.847656 69.347656 318.121094 70.125 318.363281 70.910156 C 318.601562 71.699219 318.800781 72.496094 318.960938 73.304688 C 319.121094 74.113281 319.242188 74.925781 319.324219 75.746094 C 319.40625 76.566406 319.445312 77.386719 319.445312 78.210938 Z M 319.445312 78.210938 "/>
        <path style=" stroke:none;fill-rule:nonzero;fill:rgb(20.388794%,10.5896%,2.749634%);fill-opacity:1;"
              d="M 309.113281 73.871094 C 308.214844 73.871094 307.167969 73.273438 306.71875 72.375 C 304.472656 67.582031 299.53125 64.589844 294.289062 64.589844 C 289.050781 64.589844 284.109375 67.734375 281.863281 72.375 C 281.261719 73.722656 279.765625 74.171875 278.417969 73.570312 C 277.070312 72.972656 276.621094 71.476562 277.21875 70.128906 C 280.363281 63.539062 286.953125 59.347656 294.289062 59.347656 C 301.625 59.347656 308.214844 63.539062 311.359375 70.128906 C 311.957031 71.476562 311.359375 72.972656 310.160156 73.570312 C 309.863281 73.722656 309.414062 73.871094 309.113281 73.871094 Z M 309.113281 73.871094 "/>
        <path style=" stroke:none;fill-rule:nonzero;fill:rgb(20.388794%,10.5896%,2.749634%);fill-opacity:1;"
              d="M 294.890625 68.78125 L 297.882812 78.0625 C 298.484375 80.007812 297.433594 82.105469 295.488281 82.851562 C 293.542969 83.453125 291.445312 82.402344 290.695312 80.457031 C 290.398438 79.710938 290.398438 78.8125 290.695312 78.0625 L 293.691406 68.78125 C 293.839844 68.480469 294.140625 68.332031 294.441406 68.480469 C 294.738281 68.480469 294.738281 68.632812 294.890625 68.78125 Z M 294.890625 68.78125 "/>
        <path style=" stroke:none;fill-rule:nonzero;fill:rgb(20.388794%,10.5896%,2.749634%);fill-opacity:1;"
              d="M 295.9375 93.933594 C 295.9375 94.148438 295.894531 94.359375 295.8125 94.5625 C 295.726562 94.765625 295.609375 94.941406 295.453125 95.097656 C 295.300781 95.25 295.121094 95.371094 294.921875 95.453125 C 294.71875 95.535156 294.507812 95.578125 294.289062 95.578125 C 294.070312 95.578125 293.859375 95.535156 293.660156 95.453125 C 293.457031 95.371094 293.28125 95.25 293.125 95.097656 C 292.96875 94.941406 292.851562 94.765625 292.769531 94.5625 C 292.683594 94.359375 292.644531 94.148438 292.644531 93.933594 C 292.644531 93.714844 292.683594 93.503906 292.769531 93.300781 C 292.851562 93.101562 292.96875 92.921875 293.125 92.765625 C 293.28125 92.613281 293.457031 92.492188 293.660156 92.410156 C 293.859375 92.328125 294.070312 92.285156 294.289062 92.285156 C 294.507812 92.285156 294.71875 92.328125 294.921875 92.410156 C 295.121094 92.492188 295.300781 92.613281 295.453125 92.765625 C 295.609375 92.921875 295.726562 93.101562 295.8125 93.300781 C 295.894531 93.503906 295.9375 93.714844 295.9375 93.933594 Z M 295.9375 93.933594 "/>
        <path style=" stroke:none;fill-rule:nonzero;fill:rgb(20.388794%,10.5896%,2.749634%);fill-opacity:1;"
              d="M 302.074219 93.933594 C 302.074219 94.148438 302.035156 94.359375 301.949219 94.5625 C 301.867188 94.765625 301.75 94.941406 301.59375 95.097656 C 301.4375 95.25 301.261719 95.371094 301.058594 95.453125 C 300.859375 95.535156 300.648438 95.578125 300.429688 95.578125 C 300.210938 95.578125 300 95.535156 299.796875 95.453125 C 299.597656 95.371094 299.417969 95.25 299.265625 95.097656 C 299.109375 94.941406 298.992188 94.765625 298.90625 94.5625 C 298.824219 94.359375 298.78125 94.148438 298.78125 93.933594 C 298.78125 93.714844 298.824219 93.503906 298.90625 93.300781 C 298.992188 93.101562 299.109375 92.921875 299.265625 92.765625 C 299.417969 92.613281 299.597656 92.492188 299.796875 92.410156 C 300 92.328125 300.210938 92.285156 300.429688 92.285156 C 300.648438 92.285156 300.859375 92.328125 301.058594 92.410156 C 301.261719 92.492188 301.4375 92.613281 301.59375 92.765625 C 301.75 92.921875 301.867188 93.101562 301.949219 93.300781 C 302.035156 93.503906 302.074219 93.714844 302.074219 93.933594 Z M 302.074219 93.933594 "/>
        <path style=" stroke:none;fill-rule:nonzero;fill:rgb(20.388794%,10.5896%,2.749634%);fill-opacity:1;"
              d="M 289.796875 93.933594 C 289.796875 94.148438 289.757812 94.359375 289.671875 94.5625 C 289.589844 94.765625 289.46875 94.941406 289.316406 95.097656 C 289.160156 95.25 288.984375 95.371094 288.78125 95.453125 C 288.578125 95.535156 288.367188 95.578125 288.152344 95.578125 C 287.933594 95.578125 287.722656 95.535156 287.519531 95.453125 C 287.320312 95.371094 287.140625 95.25 286.984375 95.097656 C 286.832031 94.941406 286.710938 94.765625 286.628906 94.5625 C 286.546875 94.359375 286.503906 94.148438 286.503906 93.933594 C 286.503906 93.714844 286.546875 93.503906 286.628906 93.300781 C 286.710938 93.101562 286.832031 92.921875 286.984375 92.765625 C 287.140625 92.613281 287.320312 92.492188 287.519531 92.410156 C 287.722656 92.328125 287.933594 92.285156 288.152344 92.285156 C 288.367188 92.285156 288.578125 92.328125 288.78125 92.410156 C 288.984375 92.492188 289.160156 92.613281 289.316406 92.765625 C 289.46875 92.921875 289.589844 93.101562 289.671875 93.300781 C 289.757812 93.503906 289.796875 93.714844 289.796875 93.933594 Z M 289.796875 93.933594 "/>
        <use xlink:href="#surface17" transform="matrix(1,0,0,1,268,52)" mask="url(#mask4)"/>
        <path style=" stroke:none;fill-rule:nonzero;fill:rgb(20.388794%,10.5896%,2.749634%);fill-opacity:1;"
              d="M 294.289062 106.957031 C 278.417969 106.957031 265.539062 94.082031 265.539062 78.210938 C 265.539062 62.34375 278.417969 49.46875 294.289062 49.46875 C 310.160156 49.46875 323.039062 62.34375 323.039062 78.210938 C 323.039062 94.082031 310.160156 106.957031 294.289062 106.957031 Z M 294.289062 56.652344 C 282.460938 56.652344 272.726562 66.386719 272.726562 78.210938 C 272.726562 90.039062 282.460938 99.769531 294.289062 99.769531 C 306.117188 99.769531 315.851562 90.039062 315.851562 78.210938 C 315.851562 66.386719 306.269531 56.652344 294.289062 56.652344 Z M 294.289062 56.652344 "/>
        <path style=" stroke:none;fill-rule:nonzero;fill:rgb(20.388794%,10.5896%,2.749634%);fill-opacity:1;"
              d="M 114.308594 66.234375 C 114.308594 66.863281 114.246094 67.488281 114.125 68.105469 C 114 68.722656 113.820312 69.320312 113.578125 69.902344 C 113.339844 70.484375 113.042969 71.035156 112.695312 71.558594 C 112.34375 72.082031 111.945312 72.566406 111.5 73.011719 C 111.058594 73.457031 110.574219 73.851562 110.050781 74.203125 C 109.527344 74.550781 108.972656 74.847656 108.394531 75.085938 C 107.8125 75.328125 107.210938 75.511719 106.59375 75.632812 C 105.976562 75.753906 105.355469 75.816406 104.726562 75.816406 C 104.097656 75.816406 103.472656 75.753906 102.855469 75.632812 C 102.238281 75.511719 101.640625 75.328125 101.058594 75.085938 C 100.476562 74.847656 99.925781 74.550781 99.402344 74.203125 C 98.878906 73.851562 98.394531 73.457031 97.949219 73.011719 C 97.503906 72.566406 97.105469 72.082031 96.757812 71.558594 C 96.40625 71.035156 96.113281 70.484375 95.871094 69.902344 C 95.632812 69.320312 95.449219 68.722656 95.328125 68.105469 C 95.203125 67.488281 95.140625 66.863281 95.140625 66.234375 C 95.140625 65.605469 95.203125 64.984375 95.328125 64.367188 C 95.449219 63.75 95.632812 63.148438 95.871094 62.570312 C 96.113281 61.988281 96.40625 61.4375 96.757812 60.914062 C 97.105469 60.390625 97.503906 59.90625 97.949219 59.460938 C 98.394531 59.015625 98.878906 58.617188 99.402344 58.269531 C 99.925781 57.917969 100.476562 57.625 101.058594 57.382812 C 101.640625 57.144531 102.238281 56.960938 102.855469 56.839844 C 103.472656 56.714844 104.097656 56.652344 104.726562 56.652344 C 105.355469 56.652344 105.976562 56.714844 106.59375 56.839844 C 107.210938 56.960938 107.8125 57.144531 108.394531 57.382812 C 108.972656 57.625 109.527344 57.917969 110.050781 58.269531 C 110.574219 58.617188 111.058594 59.015625 111.5 59.460938 C 111.945312 59.90625 112.34375 60.390625 112.695312 60.914062 C 113.042969 61.4375 113.339844 61.988281 113.578125 62.570312 C 113.820312 63.148438 114 63.75 114.125 64.367188 C 114.246094 64.984375 114.308594 65.605469 114.308594 66.234375 Z M 114.308594 66.234375 "/>
        <path style=" stroke:none;fill-rule:nonzero;fill:rgb(20.388794%,10.5896%,2.749634%);fill-opacity:1;"
              d="M 104.726562 78.660156 C 97.835938 78.660156 92.296875 73.121094 92.296875 66.234375 C 92.296875 59.347656 97.835938 53.808594 104.726562 53.808594 C 111.613281 53.808594 117.152344 59.347656 117.152344 66.234375 C 117.152344 73.121094 111.613281 78.660156 104.726562 78.660156 Z M 104.726562 59.5 C 100.980469 59.5 97.988281 62.492188 97.988281 66.234375 C 97.988281 69.976562 100.980469 72.972656 104.726562 72.972656 C 108.46875 72.972656 111.464844 69.976562 111.464844 66.234375 C 111.464844 62.492188 108.46875 59.5 104.726562 59.5 Z M 104.726562 59.5 "/>
        <path style=" stroke:none;fill-rule:nonzero;fill:rgb(20.388794%,10.5896%,2.749634%);fill-opacity:1;"
              d="M 98.734375 95.277344 L 110.566406 95.277344 L 110.566406 107.105469 L 98.734375 107.105469 Z M 98.734375 95.277344 "/>
        <use xlink:href="#surface20" transform="matrix(1,0,0,1,94,66)" mask="url(#mask5)"/>
        <path style=" stroke:none;fill-rule:nonzero;fill:rgb(89.7995%,67.449951%,13.729858%);fill-opacity:1;"
              d="M 79.121094 66.234375 C 79.121094 66.863281 79.058594 67.488281 78.9375 68.105469 C 78.8125 68.722656 78.632812 69.320312 78.390625 69.902344 C 78.152344 70.484375 77.855469 71.035156 77.503906 71.558594 C 77.15625 72.082031 76.757812 72.566406 76.3125 73.011719 C 75.867188 73.457031 75.386719 73.851562 74.863281 74.203125 C 74.339844 74.550781 73.785156 74.847656 73.203125 75.085938 C 72.625 75.328125 72.023438 75.511719 71.40625 75.632812 C 70.789062 75.753906 70.167969 75.816406 69.539062 75.816406 C 68.910156 75.816406 68.285156 75.753906 67.667969 75.632812 C 67.050781 75.511719 66.453125 75.328125 65.871094 75.085938 C 65.289062 74.847656 64.738281 74.550781 64.214844 74.203125 C 63.691406 73.851562 63.207031 73.457031 62.761719 73.011719 C 62.316406 72.566406 61.917969 72.082031 61.570312 71.558594 C 61.21875 71.035156 60.925781 70.484375 60.683594 69.902344 C 60.441406 69.320312 60.261719 68.722656 60.140625 68.105469 C 60.015625 67.488281 59.953125 66.863281 59.953125 66.234375 C 59.953125 65.605469 60.015625 64.984375 60.140625 64.367188 C 60.261719 63.75 60.441406 63.148438 60.683594 62.570312 C 60.925781 61.988281 61.21875 61.4375 61.570312 60.914062 C 61.917969 60.390625 62.316406 59.90625 62.761719 59.460938 C 63.207031 59.015625 63.691406 58.617188 64.214844 58.269531 C 64.738281 57.917969 65.289062 57.625 65.871094 57.382812 C 66.453125 57.144531 67.050781 56.960938 67.667969 56.839844 C 68.285156 56.714844 68.910156 56.652344 69.539062 56.652344 C 70.167969 56.652344 70.789062 56.714844 71.40625 56.839844 C 72.023438 56.960938 72.625 57.144531 73.203125 57.382812 C 73.785156 57.625 74.339844 57.917969 74.863281 58.269531 C 75.386719 58.617188 75.867188 59.015625 76.3125 59.460938 C 76.757812 59.90625 77.15625 60.390625 77.503906 60.914062 C 77.855469 61.4375 78.152344 61.988281 78.390625 62.570312 C 78.632812 63.148438 78.8125 63.75 78.9375 64.367188 C 79.058594 64.984375 79.121094 65.605469 79.121094 66.234375 Z M 79.121094 66.234375 "/>
        <path style=" stroke:none;fill-rule:nonzero;fill:rgb(20.388794%,10.5896%,2.749634%);fill-opacity:1;"
              d="M 69.539062 78.660156 C 62.648438 78.660156 57.109375 73.121094 57.109375 66.234375 C 57.109375 59.347656 62.648438 53.808594 69.539062 53.808594 C 76.425781 53.808594 81.964844 59.347656 81.964844 66.234375 C 81.964844 73.121094 76.425781 78.660156 69.539062 78.660156 Z M 69.539062 59.5 C 65.792969 59.5 62.800781 62.492188 62.800781 66.234375 C 62.800781 69.976562 65.792969 72.972656 69.539062 72.972656 C 73.28125 72.972656 76.277344 69.976562 76.277344 66.234375 C 76.277344 62.492188 73.132812 59.5 69.539062 59.5 Z M 69.539062 59.5 "/>
        <path style=" stroke:none;fill-rule:nonzero;fill:rgb(20.388794%,10.5896%,2.749634%);fill-opacity:1;"
              d="M 63.546875 95.277344 L 75.378906 95.277344 L 75.378906 107.105469 L 63.546875 107.105469 Z M 63.546875 95.277344 "/>
        <use xlink:href="#surface23" transform="matrix(1,0,0,1,59,66)" mask="url(#mask6)"/>
        <path style=" stroke:none;fill-rule:nonzero;fill:rgb(20.388794%,10.5896%,2.749634%);fill-opacity:1;"
              d="M 339.660156 116.089844 C 339.660156 116.585938 339.566406 117.0625 339.375 117.519531 C 339.183594 117.980469 338.914062 118.382812 338.5625 118.734375 C 338.210938 119.085938 337.808594 119.355469 337.347656 119.546875 C 336.890625 119.738281 336.414062 119.832031 335.917969 119.832031 C 335.417969 119.832031 334.941406 119.738281 334.484375 119.546875 C 334.023438 119.355469 333.621094 119.085938 333.269531 118.734375 C 332.917969 118.382812 332.648438 117.980469 332.457031 117.519531 C 332.269531 117.0625 332.171875 116.585938 332.171875 116.089844 C 332.171875 115.59375 332.269531 115.113281 332.457031 114.65625 C 332.648438 114.199219 332.917969 113.792969 333.269531 113.441406 C 333.621094 113.089844 334.023438 112.820312 334.484375 112.632812 C 334.941406 112.441406 335.417969 112.347656 335.917969 112.347656 C 336.414062 112.347656 336.890625 112.441406 337.347656 112.632812 C 337.808594 112.820312 338.210938 113.089844 338.5625 113.441406 C 338.914062 113.792969 339.183594 114.199219 339.375 114.65625 C 339.566406 115.113281 339.660156 115.59375 339.660156 116.089844 Z M 339.660156 116.089844 "/>
        <path style=" stroke:none;fill-rule:nonzero;fill:rgb(20.388794%,10.5896%,2.749634%);fill-opacity:1;"
              d="M 339.660156 44.378906 C 339.660156 44.875 339.566406 45.351562 339.375 45.808594 C 339.183594 46.269531 338.914062 46.671875 338.5625 47.023438 C 338.210938 47.375 337.808594 47.644531 337.347656 47.835938 C 336.890625 48.027344 336.414062 48.121094 335.917969 48.121094 C 335.417969 48.121094 334.941406 48.027344 334.484375 47.835938 C 334.023438 47.644531 333.621094 47.375 333.269531 47.023438 C 332.917969 46.671875 332.648438 46.269531 332.457031 45.808594 C 332.269531 45.351562 332.171875 44.875 332.171875 44.378906 C 332.171875 43.882812 332.269531 43.40625 332.457031 42.945312 C 332.648438 42.488281 332.917969 42.082031 333.269531 41.730469 C 333.621094 41.378906 334.023438 41.109375 334.484375 40.921875 C 334.941406 40.730469 335.417969 40.636719 335.917969 40.636719 C 336.414062 40.636719 336.890625 40.730469 337.347656 40.921875 C 337.808594 41.109375 338.210938 41.378906 338.5625 41.730469 C 338.914062 42.082031 339.183594 42.488281 339.375 42.945312 C 339.566406 43.40625 339.660156 43.882812 339.660156 44.378906 Z M 339.660156 44.378906 "/>
        <path style=" stroke:none;fill-rule:nonzero;fill:rgb(20.388794%,10.5896%,2.749634%);fill-opacity:1;"
              d="M 42.4375 116.089844 C 42.4375 116.585938 42.339844 117.0625 42.152344 117.519531 C 41.960938 117.980469 41.691406 118.382812 41.339844 118.734375 C 40.988281 119.085938 40.582031 119.355469 40.125 119.546875 C 39.667969 119.738281 39.1875 119.832031 38.691406 119.832031 C 38.195312 119.832031 37.71875 119.738281 37.257812 119.546875 C 36.800781 119.355469 36.394531 119.085938 36.046875 118.734375 C 35.695312 118.382812 35.421875 117.980469 35.234375 117.519531 C 35.042969 117.0625 34.949219 116.585938 34.949219 116.089844 C 34.949219 115.59375 35.042969 115.113281 35.234375 114.65625 C 35.421875 114.199219 35.695312 113.792969 36.046875 113.441406 C 36.394531 113.089844 36.800781 112.820312 37.257812 112.632812 C 37.71875 112.441406 38.195312 112.347656 38.691406 112.347656 C 39.1875 112.347656 39.667969 112.441406 40.125 112.632812 C 40.582031 112.820312 40.988281 113.089844 41.339844 113.441406 C 41.691406 113.792969 41.960938 114.199219 42.152344 114.65625 C 42.339844 115.113281 42.4375 115.59375 42.4375 116.089844 Z M 42.4375 116.089844 "/>
        <path style=" stroke:none;fill-rule:nonzero;fill:rgb(20.388794%,10.5896%,2.749634%);fill-opacity:1;"
              d="M 42.4375 44.378906 C 42.4375 44.875 42.339844 45.351562 42.152344 45.808594 C 41.960938 46.269531 41.691406 46.671875 41.339844 47.023438 C 40.988281 47.375 40.582031 47.644531 40.125 47.835938 C 39.667969 48.027344 39.1875 48.121094 38.691406 48.121094 C 38.195312 48.121094 37.71875 48.027344 37.257812 47.835938 C 36.800781 47.644531 36.394531 47.375 36.046875 47.023438 C 35.695312 46.671875 35.421875 46.269531 35.234375 45.808594 C 35.042969 45.351562 34.949219 44.875 34.949219 44.378906 C 34.949219 43.882812 35.042969 43.40625 35.234375 42.945312 C 35.421875 42.488281 35.695312 42.082031 36.046875 41.730469 C 36.394531 41.378906 36.800781 41.109375 37.257812 40.921875 C 37.71875 40.730469 38.195312 40.636719 38.691406 40.636719 C 39.1875 40.636719 39.667969 40.730469 40.125 40.921875 C 40.582031 41.109375 40.988281 41.378906 41.339844 41.730469 C 41.691406 42.082031 41.960938 42.488281 42.152344 42.945312 C 42.339844 43.40625 42.4375 43.882812 42.4375 44.378906 Z M 42.4375 44.378906 "/>
        <use xlink:href="#surface26" transform="matrix(1,0,0,1,25,121)" mask="url(#mask7)"/>
        <g clip-path="url(#clip15)" clip-rule="nonzero">
            <path style=" stroke:none;fill-rule:nonzero;fill:rgb(20.388794%,10.5896%,2.749634%);fill-opacity:1;"
                  d="M 357.027344 137.199219 L 18.027344 137.199219 L 18.027344 47.972656 C 18.027344 21.621094 39.292969 0.363281 65.644531 0.363281 L 309.5625 0.363281 C 335.765625 0.363281 357.179688 21.621094 357.179688 47.972656 L 357.179688 137.199219 Z M 28.0625 127.015625 L 346.996094 127.015625 L 346.996094 47.972656 C 346.996094 27.3125 330.226562 10.542969 309.5625 10.542969 L 65.644531 10.542969 C 44.980469 10.542969 28.210938 27.3125 28.210938 47.972656 L 28.210938 127.015625 Z M 28.0625 127.015625 "/>
        </g>
        <path style=" stroke:none;fill-rule:nonzero;fill:rgb(20.388794%,10.5896%,2.749634%);fill-opacity:1;"
              d="M 26.5625 28.058594 L 347.445312 28.058594 L 347.445312 33.75 L 26.5625 33.75 Z M 26.5625 28.058594 "/>
        <use xlink:href="#surface29" transform="matrix(1,0,0,1,47,314)" mask="url(#mask8)"/>
        <path style=" stroke:none;fill-rule:nonzero;fill:rgb(89.7995%,67.449951%,13.729858%);fill-opacity:1;"
              d="M 352.085938 369.546875 L 23.121094 369.546875 L 23.121094 343.347656 C 23.121094 336.160156 28.960938 330.171875 36.296875 330.171875 L 339.0625 330.171875 C 346.246094 330.171875 352.238281 336.011719 352.238281 343.347656 L 352.238281 369.546875 Z M 352.085938 369.546875 "/>
        <path style=" stroke:none;fill-rule:nonzero;fill:rgb(89.7995%,67.449951%,13.729858%);fill-opacity:1;"
              d="M 224.214844 173.875 L 150.84375 173.875 C 146.203125 173.875 142.457031 170.132812 142.457031 165.492188 L 142.457031 132.109375 L 232.597656 132.109375 L 232.597656 165.492188 C 232.597656 170.132812 228.855469 173.875 224.214844 173.875 Z M 224.214844 173.875 "/>
        <use xlink:href="#surface32" transform="matrix(1,0,0,1,143,134)" mask="url(#mask9)"/>
        <path style=" stroke:none;fill-rule:nonzero;fill:rgb(89.7995%,67.449951%,13.729858%);fill-opacity:1;"
              d="M 155.484375 173.875 L 219.722656 173.875 L 219.722656 204.714844 L 155.484375 204.714844 Z M 155.484375 173.875 "/>
        <use xlink:href="#surface35" transform="matrix(1,0,0,1,224,142)" mask="url(#mask10)"/>
        <use xlink:href="#surface38" transform="matrix(1,0,0,1,210,172)" mask="url(#mask11)"/>
        <path style=" stroke:none;fill-rule:nonzero;fill:rgb(20.388794%,10.5896%,2.749634%);fill-opacity:1;"
              d="M 224.214844 177.46875 L 150.84375 177.46875 C 144.253906 177.46875 138.863281 172.078125 138.863281 165.492188 L 138.863281 128.515625 L 236.191406 128.515625 L 236.191406 165.492188 C 236.191406 172.078125 230.800781 177.46875 224.214844 177.46875 Z M 146.050781 135.699219 L 146.050781 165.492188 C 146.050781 168.1875 148.148438 170.285156 150.84375 170.285156 L 224.214844 170.285156 C 226.910156 170.285156 229.003906 168.1875 229.003906 165.492188 L 229.003906 135.699219 Z M 146.050781 135.699219 "/>
        <use xlink:href="#surface41" transform="matrix(1,0,0,1,155,191)" mask="url(#mask12)"/>
        <path style=" stroke:none;fill-rule:nonzero;fill:rgb(20.388794%,10.5896%,2.749634%);fill-opacity:1;"
              d="M 223.164062 208.308594 L 151.890625 208.308594 L 151.890625 170.285156 L 223.164062 170.285156 Z M 159.078125 201.125 L 216.128906 201.125 L 216.128906 177.46875 L 159.078125 177.46875 Z M 159.078125 201.125 "/>
        <path style=" stroke:none;fill-rule:nonzero;fill:rgb(20.388794%,10.5896%,2.749634%);fill-opacity:1;"
              d="M 155.484375 188.546875 L 219.722656 188.546875 L 219.722656 194.238281 L 155.484375 194.238281 Z M 155.484375 188.546875 "/>
        <path style=" stroke:none;fill-rule:nonzero;fill:rgb(89.7995%,67.449951%,13.729858%);fill-opacity:1;"
              d="M 278.867188 330.324219 L 96.191406 330.324219 L 96.191406 321.488281 C 96.191406 314.003906 102.328125 307.867188 109.816406 307.867188 L 265.242188 307.867188 C 272.726562 307.867188 278.867188 314.003906 278.867188 321.488281 Z M 278.867188 330.324219 "/>
        <path style=" stroke:none;fill-rule:nonzero;fill:rgb(20.388794%,10.5896%,2.749634%);fill-opacity:1;"
              d="M 219.570312 186.601562 L 251.167969 186.601562 L 251.167969 196.332031 L 219.570312 196.332031 Z M 219.570312 186.601562 "/>
        <path style=" stroke:none;fill-rule:nonzero;fill:rgb(20.388794%,10.5896%,2.749634%);fill-opacity:1;"
              d="M 254.160156 199.175781 L 216.875 199.175781 L 216.875 183.609375 L 254.160156 183.609375 Z M 222.417969 193.488281 L 248.320312 193.488281 L 248.320312 189.445312 L 222.417969 189.445312 Z M 222.417969 193.488281 "/>
        <use xlink:href="#surface44" transform="matrix(1,0,0,1,25,356)" mask="url(#mask13)"/>
        <use xlink:href="#surface47" transform="matrix(1,0,0,1,25,329)" mask="url(#mask14)"/>
        <use xlink:href="#surface50" transform="matrix(1,0,0,1,224,307)" mask="url(#mask15)"/>
        <path style=" stroke:none;fill-rule:nonzero;fill:rgb(20.388794%,10.5896%,2.749634%);fill-opacity:1;"
              d="M 283.210938 334.664062 L 91.847656 334.664062 L 91.847656 321.488281 C 91.847656 311.609375 99.933594 303.523438 109.816406 303.523438 L 265.242188 303.523438 C 275.125 303.523438 283.210938 311.609375 283.210938 321.488281 Z M 100.53125 325.980469 L 274.523438 325.980469 L 274.523438 321.339844 C 274.523438 316.25 270.332031 312.058594 265.242188 312.058594 L 109.816406 312.058594 C 104.726562 312.058594 100.53125 316.25 100.53125 321.339844 Z M 100.53125 325.980469 "/>
        <g clip-path="url(#clip31)" clip-rule="nonzero">
            <path style=" stroke:none;fill-rule:nonzero;fill:rgb(20.388794%,10.5896%,2.749634%);fill-opacity:1;"
                  d="M 357.027344 374.636719 L 18.027344 374.636719 L 18.027344 343.496094 C 18.027344 333.464844 26.113281 325.382812 36.148438 325.382812 L 338.910156 325.382812 C 348.941406 325.382812 357.027344 333.464844 357.027344 343.496094 Z M 28.0625 364.605469 L 346.996094 364.605469 L 346.996094 343.496094 C 346.996094 339.003906 343.402344 335.414062 338.910156 335.414062 L 36.148438 335.414062 C 31.65625 335.414062 28.0625 339.003906 28.0625 343.496094 Z M 28.0625 364.605469 "/>
        </g>
        <path style=" stroke:none;fill-rule:nonzero;fill:rgb(89.7995%,67.449951%,13.729858%);fill-opacity:1;"
              d="M 304.921875 201.574219 L 251.316406 201.574219 L 251.316406 181.511719 L 304.921875 181.511719 C 310.460938 181.511719 314.953125 186.003906 314.953125 191.542969 C 314.953125 196.933594 310.460938 201.574219 304.921875 201.574219 Z M 304.921875 201.574219 "/>
        <path style=" stroke:none;fill-rule:nonzero;fill:rgb(20.388794%,10.5896%,2.749634%);fill-opacity:1;"
              d="M 304.921875 204.417969 L 248.472656 204.417969 L 248.472656 178.515625 L 304.921875 178.515625 C 312.109375 178.515625 317.796875 184.355469 317.796875 191.390625 C 317.796875 198.578125 311.957031 204.417969 304.921875 204.417969 Z M 254.160156 198.578125 L 304.921875 198.578125 C 308.8125 198.578125 312.109375 195.285156 312.109375 191.390625 C 312.109375 187.5 308.8125 184.207031 304.921875 184.207031 L 254.160156 184.207031 Z M 254.160156 198.578125 "/>
        <path style=" stroke:none;fill-rule:nonzero;fill:rgb(20.388794%,10.5896%,2.749634%);fill-opacity:1;"
              d="M 263.445312 181.363281 L 267.785156 181.363281 L 267.785156 201.125 L 263.445312 201.125 Z M 263.445312 181.363281 "/>
        <path style=" stroke:none;fill-rule:nonzero;fill:rgb(20.388794%,10.5896%,2.749634%);fill-opacity:1;"
              d="M 51.121094 348.585938 C 51.121094 349.003906 51.039062 349.40625 50.882812 349.789062 C 50.722656 350.175781 50.492188 350.515625 50.199219 350.808594 C 49.90625 351.105469 49.5625 351.332031 49.179688 351.492188 C 48.792969 351.652344 48.394531 351.730469 47.976562 351.730469 C 47.558594 351.730469 47.15625 351.652344 46.773438 351.492188 C 46.386719 351.332031 46.046875 351.105469 45.753906 350.808594 C 45.457031 350.515625 45.230469 350.175781 45.070312 349.789062 C 44.910156 349.40625 44.832031 349.003906 44.832031 348.585938 C 44.832031 348.171875 44.910156 347.769531 45.070312 347.382812 C 45.230469 347 45.457031 346.660156 45.753906 346.363281 C 46.046875 346.070312 46.386719 345.84375 46.773438 345.683594 C 47.15625 345.523438 47.558594 345.441406 47.976562 345.441406 C 48.394531 345.441406 48.792969 345.523438 49.179688 345.683594 C 49.5625 345.84375 49.90625 346.070312 50.199219 346.363281 C 50.492188 346.660156 50.722656 347 50.882812 347.382812 C 51.039062 347.769531 51.121094 348.171875 51.121094 348.585938 Z M 51.121094 348.585938 "/>
        <path style=" stroke:none;fill-rule:nonzero;fill:rgb(20.388794%,10.5896%,2.749634%);fill-opacity:1;"
              d="M 332.773438 348.585938 C 332.773438 348.964844 332.699219 349.328125 332.554688 349.675781 C 332.410156 350.023438 332.207031 350.332031 331.9375 350.597656 C 331.671875 350.863281 331.363281 351.070312 331.015625 351.214844 C 330.667969 351.359375 330.304688 351.429688 329.925781 351.429688 C 329.550781 351.429688 329.1875 351.359375 328.839844 351.214844 C 328.488281 351.070312 328.183594 350.863281 327.914062 350.597656 C 327.648438 350.332031 327.441406 350.023438 327.296875 349.675781 C 327.152344 349.328125 327.082031 348.964844 327.082031 348.585938 C 327.082031 348.210938 327.152344 347.847656 327.296875 347.5 C 327.441406 347.148438 327.648438 346.84375 327.914062 346.574219 C 328.183594 346.308594 328.488281 346.101562 328.839844 345.960938 C 329.1875 345.816406 329.550781 345.742188 329.925781 345.742188 C 330.304688 345.742188 330.667969 345.816406 331.015625 345.957031 C 331.363281 346.101562 331.671875 346.308594 331.9375 346.574219 C 332.207031 346.84375 332.410156 347.148438 332.554688 347.5 C 332.699219 347.847656 332.773438 348.210938 332.773438 348.585938 Z M 332.773438 348.585938 "/>
        <path style=" stroke:none;fill-rule:nonzero;fill:rgb(80.389404%,79.219055%,70.588684%);fill-opacity:1;"
              d="M 199.957031 306.367188 L 174.949219 306.367188 C 152.492188 306.367188 134.371094 288.253906 134.371094 265.796875 L 134.371094 233.609375 L 240.535156 233.609375 L 240.535156 265.796875 C 240.683594 288.253906 222.417969 306.367188 199.957031 306.367188 Z M 199.957031 306.367188 "/>
        <path style=" stroke:none;fill-rule:nonzero;fill:rgb(80.389404%,79.219055%,70.588684%);fill-opacity:1;"
              d="M 250.566406 286.605469 L 238.289062 286.605469 L 238.289062 266.546875 L 250.566406 266.546875 C 252.8125 266.546875 254.761719 265.648438 256.257812 264.152344 C 257.902344 262.503906 258.652344 260.558594 258.652344 258.3125 C 258.652344 253.820312 255.058594 250.226562 250.566406 250.226562 L 239.488281 250.226562 L 239.488281 230.167969 L 250.566406 230.167969 C 266.140625 230.167969 278.867188 242.890625 278.867188 258.460938 C 278.867188 265.949219 275.871094 273.132812 270.632812 278.375 C 265.242188 283.613281 258.203125 286.605469 250.566406 286.605469 Z M 250.566406 286.605469 "/>
        <path style=" stroke:none;fill-rule:nonzero;fill:rgb(20.388794%,10.5896%,2.749634%);fill-opacity:1;"
              d="M 250.566406 237.203125 C 262.246094 237.203125 271.679688 246.636719 271.679688 258.3125 C 271.679688 264 269.433594 269.242188 265.539062 273.285156 C 261.648438 277.324219 256.257812 279.421875 250.71875 279.421875 L 245.625 279.421875 L 245.625 273.734375 L 250.71875 273.734375 C 254.761719 273.734375 258.652344 272.085938 261.496094 269.242188 C 264.34375 266.246094 265.988281 262.503906 265.988281 258.3125 C 265.988281 249.929688 259.101562 243.042969 250.71875 243.042969 L 246.824219 243.042969 L 246.824219 237.351562 L 250.566406 237.351562 M 250.566406 230.015625 L 239.488281 230.015625 L 239.488281 250.078125 L 250.566406 250.078125 C 255.058594 250.078125 258.652344 253.671875 258.652344 258.164062 C 258.652344 260.257812 257.753906 262.355469 256.257812 264 C 254.761719 265.5 252.664062 266.398438 250.566406 266.398438 L 238.289062 266.398438 L 238.289062 286.457031 L 250.566406 286.457031 C 258.203125 286.457031 265.242188 283.464844 270.480469 278.222656 C 275.871094 272.835938 278.71875 265.796875 278.71875 258.3125 C 278.867188 242.742188 266.140625 230.015625 250.566406 230.015625 Z M 250.566406 230.015625 "/>
        <use xlink:href="#surface53" transform="matrix(1,0,0,1,200,232)" mask="url(#mask16)"/>
        <path style=" stroke:none;fill-rule:nonzero;fill:rgb(20.388794%,10.5896%,2.749634%);fill-opacity:1;"
              d="M 134.523438 244.988281 L 241.882812 244.988281 L 241.882812 249.328125 L 134.523438 249.328125 Z M 134.523438 244.988281 "/>
        <path style=" stroke:none;fill-rule:nonzero;fill:rgb(20.388794%,10.5896%,2.749634%);fill-opacity:1;"
              d="M 199.957031 309.960938 L 174.949219 309.960938 C 150.542969 309.960938 130.777344 290.199219 130.777344 265.796875 L 130.777344 230.015625 L 244.128906 230.015625 L 244.128906 265.796875 C 244.277344 290.199219 224.363281 309.960938 199.957031 309.960938 Z M 138.117188 237.203125 L 138.117188 265.796875 C 138.117188 286.160156 154.738281 302.777344 175.101562 302.777344 L 200.105469 302.777344 C 220.46875 302.777344 237.089844 286.160156 237.089844 265.796875 L 237.089844 237.203125 Z M 138.117188 237.203125 "/>
        <path style=" stroke:none;fill-rule:nonzero;fill:rgb(20.388794%,10.5896%,2.749634%);fill-opacity:1;"
              d="M 184.085938 31.054688 L 189.773438 31.054688 L 189.773438 130.609375 L 184.085938 130.609375 Z M 184.085938 31.054688 "/>
    </g>
</svg>
